<svg width="21" height="25" viewBox="0 0 21 25" fill="none" xmlns="http://www.w3.org/2000/svg">
<path d="M10.4995 5.87741C9.73531 5.87741 8.98825 6.07796 8.35283 6.45371C7.7174 6.82945 7.22214 7.3635 6.92969 7.98834C6.63723 8.61318 6.56071 9.30073 6.70981 9.96405C6.8589 10.6274 7.22691 11.2367 7.76729 11.7149C8.30768 12.1931 8.99617 12.5188 9.74571 12.6508C10.4952 12.7827 11.2722 12.715 11.9782 12.4562C12.6843 12.1974 13.2877 11.7591 13.7123 11.1967C14.1369 10.6344 14.3635 9.97326 14.3635 9.29694C14.3623 8.39034 13.9549 7.52117 13.2305 6.88011C12.5061 6.23905 11.524 5.87844 10.4995 5.87741ZM10.4995 11.0067C10.1174 11.0067 9.74389 10.9064 9.42618 10.7186C9.10847 10.5307 8.86084 10.2637 8.71461 9.95124C8.56838 9.63882 8.53012 9.29504 8.60467 8.96338C8.67922 8.63172 8.86322 8.32707 9.13341 8.08795C9.40361 7.84884 9.74785 7.686 10.1226 7.62003C10.4974 7.55405 10.8858 7.58791 11.2389 7.71732C11.5919 7.84673 11.8936 8.06587 12.1059 8.34704C12.3182 8.62821 12.4315 8.95878 12.4315 9.29694C12.4309 9.75023 12.2272 10.1848 11.865 10.5053C11.5028 10.8259 11.0117 11.0062 10.4995 11.0067Z" fill="#FFF8F8"/>
<path d="M17.9245 2.72094C16.0887 1.09668 13.6381 0.131811 11.0456 0.0125409C8.45323 -0.106729 5.90277 0.628058 3.88653 2.07509C1.87028 3.52212 0.531176 5.57881 0.127662 7.84821C-0.275852 10.1176 0.284829 12.4389 1.70149 14.3639L9.00121 24.2813C9.16365 24.5019 9.38576 24.6833 9.6474 24.8088C9.90905 24.9343 10.2019 25 10.4996 25C10.7972 25 11.0901 24.9343 11.3517 24.8088C11.6133 24.6833 11.8355 24.5019 11.9979 24.2813L19.2978 14.3639C20.6124 12.5782 21.1933 10.4468 20.9432 8.32701C20.6932 6.20725 19.6274 4.22798 17.9245 2.72094ZM17.6791 13.4307L10.4996 23.1843L3.32002 13.4307C1.12238 10.4451 1.59373 6.44956 4.44075 3.9299C5.2364 3.22575 6.18098 2.66718 7.22056 2.2861C8.26013 1.90501 9.37435 1.70887 10.4996 1.70887C11.6248 1.70887 12.739 1.90501 13.7786 2.2861C14.8182 2.66718 15.7628 3.22575 16.5584 3.9299C19.4054 6.44956 19.8767 10.4451 17.6791 13.4307Z" fill="#FFF8F8"/>
</svg>
